<svg width="250" height="254" viewBox="0 0 250 254" fill="none" xmlns="http://www.w3.org/2000/svg">
<g clip-path="url(#clip0_20_4177)">
<rect width="250" height="254" rx="8" fill="white"/>
<g filter="url(#filter0_d_20_4177)">
<circle cx="65.2529" cy="117" r="19.9868" fill="#EC111A"/>
<path d="M70.6383 110.464H65.253C62.1831 110.464 59.6542 112.783 59.3234 115.767C58.8514 114.913 58.5826 113.931 58.5826 112.883C58.5826 109.589 61.2529 106.919 64.5467 106.919H73.8356L70.6383 110.464Z" fill="white"/>
<path d="M59.8712 122.396H65.2565C68.3264 122.396 70.8553 120.077 71.1861 117.093C71.6581 117.948 71.9269 118.93 71.9269 119.977C71.9269 123.271 69.2566 125.941 65.9628 125.941H56.6704L59.8712 122.396Z" fill="white"/>
<path fill-rule="evenodd" clip-rule="evenodd" d="M65.2531 111.639C67.8999 111.639 70.0454 113.785 70.0455 116.432C70.0455 119.079 67.9 121.224 65.2531 121.224C62.6062 121.224 60.4604 119.079 60.4604 116.432C60.4605 113.785 62.6063 111.639 65.2531 111.639ZM65.5608 113.775C65.4816 113.616 65.2546 113.617 65.1753 113.775L64.6192 114.888C64.4513 115.223 64.1815 115.494 63.8471 115.66L62.7337 116.217C62.5753 116.296 62.5752 116.523 62.7337 116.602L63.8471 117.158C64.1815 117.326 64.4527 117.596 64.6192 117.93L65.1753 119.044C65.2546 119.202 65.4815 119.202 65.5608 119.044L66.1165 117.93C66.2844 117.596 66.5546 117.324 66.889 117.158L68.0024 116.602C68.1607 116.523 68.1607 116.296 68.0024 116.217L66.889 115.66C66.5546 115.493 66.2831 115.223 66.1165 114.888L65.5608 113.775Z" fill="white"/>
</g>
<g filter="url(#filter1_d_20_4177)">
<circle cx="65.2529" cy="203.368" r="15.5879" fill="#7849B8"/>
<path d="M69.453 198.271H65.253C62.8587 198.271 60.8864 200.08 60.6284 202.407C60.2603 201.74 60.0507 200.975 60.0507 200.158C60.0507 197.589 62.1332 195.506 64.7021 195.506H71.9466L69.453 198.271Z" fill="white"/>
<path d="M61.0557 207.577H65.2557C67.6499 207.577 69.6223 205.768 69.8802 203.441C70.2484 204.108 70.458 204.874 70.458 205.69C70.458 208.259 68.3754 210.342 65.8065 210.342H58.5593L61.0557 207.577Z" fill="white"/>
<path fill-rule="evenodd" clip-rule="evenodd" d="M65.2531 199.188C67.3173 199.188 68.9906 200.861 68.9906 202.925C68.9906 204.99 67.3174 206.663 65.2531 206.663C63.1887 206.663 61.5152 204.99 61.5152 202.925C61.5152 200.861 63.1888 199.188 65.2531 199.188ZM65.493 200.853C65.4312 200.73 65.2542 200.73 65.1924 200.853L64.7587 201.722C64.6277 201.982 64.4173 202.194 64.1565 202.324L63.2881 202.757C63.1646 202.819 63.1646 202.996 63.2881 203.058L64.1565 203.491C64.4173 203.622 64.6288 203.833 64.7587 204.094L65.1924 204.962C65.2542 205.086 65.4312 205.086 65.493 204.962L65.9264 204.094C66.0574 203.833 66.2681 203.621 66.5289 203.491L67.3973 203.058C67.5207 202.996 67.5207 202.819 67.3973 202.757L66.5289 202.324C66.2681 202.193 66.0563 201.982 65.9264 201.722L65.493 200.853Z" fill="white"/>
</g>
<g filter="url(#filter2_d_20_4177)">
<circle cx="65.2529" cy="162.384" r="15.5879" fill="#EC111A"/>
<path d="M69.453 157.286H65.253C62.8587 157.286 60.8864 159.095 60.6284 161.422C60.2603 160.756 60.0507 159.99 60.0507 159.173C60.0507 156.604 62.1332 154.521 64.7021 154.521H71.9466L69.453 157.286Z" fill="white"/>
<path d="M61.0557 166.592H65.2557C67.6499 166.592 69.6223 164.784 69.8802 162.457C70.2484 163.123 70.458 163.889 70.458 164.706C70.458 167.275 68.3754 169.357 65.8065 169.357H58.5593L61.0557 166.592Z" fill="white"/>
<path fill-rule="evenodd" clip-rule="evenodd" d="M65.2531 158.203C67.3173 158.203 68.9906 159.876 68.9906 161.94C68.9906 164.005 67.3174 165.678 65.2531 165.678C63.1887 165.678 61.5152 164.005 61.5152 161.94C61.5152 159.876 63.1888 158.203 65.2531 158.203ZM65.493 159.868C65.4312 159.745 65.2542 159.745 65.1924 159.868L64.7587 160.737C64.6277 160.998 64.4173 161.209 64.1565 161.339L63.2881 161.773C63.1646 161.834 63.1646 162.011 63.2881 162.073L64.1565 162.507C64.4173 162.638 64.6288 162.848 64.7587 163.109L65.1924 163.978C65.2542 164.101 65.4312 164.101 65.493 163.978L65.9264 163.109C66.0574 162.848 66.2681 162.637 66.5289 162.507L67.3973 162.073C67.5207 162.011 67.5207 161.834 67.3973 161.773L66.5289 161.339C66.2681 161.208 66.0563 160.998 65.9264 160.737L65.493 159.868Z" fill="white"/>
</g>
<g filter="url(#filter3_d_20_4177)">
<rect x="162" y="93" width="48" height="48" rx="12" fill="white" fill-opacity="0.8" shape-rendering="crispEdges"/>
<rect x="162.5" y="93.5" width="47" height="47" rx="11.5" stroke="#E2E8EF" shape-rendering="crispEdges"/>
<path d="M194.256 127.319V113.559H191.504" stroke="#333333" stroke-width="1.2" stroke-linecap="round" stroke-linejoin="round"/>
<path d="M180.771 113.559L177.744 113.559L177.744 127.318L194.256 127.318" stroke="#333333" stroke-width="1.2" stroke-linecap="round" stroke-linejoin="round"/>
<path d="M186.353 106.68V119.064" stroke="#333333" stroke-width="1.2" stroke-linecap="round" stroke-linejoin="round"/>
<path d="M186.449 106.743L189.905 109.696" stroke="#333333" stroke-width="1.2" stroke-linecap="round" stroke-linejoin="round"/>
<path d="M186.256 106.745L182.8 109.697" stroke="#333333" stroke-width="1.2" stroke-linecap="round" stroke-linejoin="round"/>
</g>
<g filter="url(#filter4_d_20_4177)">
<rect x="162" y="147.506" width="48" height="48" rx="12" fill="white" fill-opacity="0.8" shape-rendering="crispEdges"/>
<rect x="162.5" y="148.006" width="47" height="47" rx="11.5" stroke="#E2E8EF" shape-rendering="crispEdges"/>
<path d="M186 177.131C187.243 177.131 188.25 178.139 188.25 179.381C188.25 180.623 187.243 181.631 186 181.631C184.758 181.631 183.75 180.623 183.75 179.381C183.75 178.139 184.758 177.131 186 177.131ZM186 169.256C187.243 169.256 188.25 170.264 188.25 171.506C188.25 172.748 187.243 173.756 186 173.756C184.758 173.756 183.75 172.748 183.75 171.506C183.75 170.264 184.758 169.256 186 169.256ZM186 161.381C187.243 161.381 188.25 162.389 188.25 163.631C188.25 164.873 187.243 165.881 186 165.881C184.758 165.881 183.75 164.873 183.75 163.631C183.75 162.389 184.758 161.381 186 161.381Z" fill="#333333"/>
</g>
<path d="M45.5089 34.3306C45.0609 34.3306 44.5969 34.2772 44.1169 34.1706C43.6476 34.0746 43.2103 33.9412 42.8049 33.7706C42.3996 33.5999 42.0743 33.4132 41.8289 33.2106L42.7089 31.3706C43.1783 31.6372 43.6636 31.8506 44.1649 32.0106C44.6769 32.1706 45.2103 32.2506 45.7649 32.2506C46.9596 32.2506 47.5569 31.8666 47.5569 31.0986C47.5569 30.7679 47.4396 30.4959 47.2049 30.2826C46.9809 30.0586 46.5223 29.8452 45.8289 29.6426L44.9969 29.4026C43.9409 29.0932 43.1889 28.6612 42.7409 28.1066C42.3036 27.5412 42.0849 26.8532 42.0849 26.0426C42.0849 25.3599 42.2449 24.7679 42.5649 24.2666C42.8956 23.7546 43.3489 23.3599 43.9249 23.0826C44.5116 22.7946 45.1943 22.6506 45.9729 22.6506C46.6663 22.6506 47.3329 22.7466 47.9729 22.9386C48.6129 23.1199 49.1623 23.3706 49.6209 23.6906L48.7569 25.4506C48.3623 25.2266 47.9409 25.0506 47.4929 24.9226C47.0556 24.7946 46.6023 24.7306 46.1329 24.7306C45.5356 24.7306 45.0876 24.8319 44.7889 25.0346C44.5009 25.2372 44.3569 25.5039 44.3569 25.8346C44.3569 26.1652 44.4743 26.4426 44.7089 26.6666C44.9436 26.8799 45.4023 27.0879 46.0849 27.2906L46.9169 27.5306C47.9729 27.8292 48.7196 28.2612 49.1569 28.8266C49.6049 29.3919 49.8289 30.0799 49.8289 30.8906C49.8289 31.9786 49.4449 32.8266 48.6769 33.4346C47.9196 34.0319 46.8636 34.3306 45.5089 34.3306ZM54.5041 34.2346C52.7014 34.2346 51.8001 33.1199 51.8001 30.8906V27.8826H50.8401V25.9306H51.8001V23.7386H53.9441V25.9306H56.1041V27.8826H53.9441V30.8586C53.9441 31.7972 54.2907 32.2666 54.9841 32.2666C55.2827 32.2666 55.5814 32.1919 55.8801 32.0426L56.6321 33.5626C56.0667 34.0106 55.3574 34.2346 54.5041 34.2346ZM58.7366 37.5146C58.3739 37.5146 58.0112 37.4559 57.6486 37.3386C57.2966 37.2319 57.0139 37.0879 56.8006 36.9066L57.6326 35.2266C57.8566 35.3439 58.0432 35.4239 58.1926 35.4666C58.3526 35.5199 58.5126 35.5466 58.6726 35.5466C58.9499 35.5466 59.1739 35.4666 59.3446 35.3066C59.5259 35.1572 59.7019 34.8906 59.8726 34.5066L60.2246 33.7226L56.9286 25.9306H59.2966L61.2806 31.2266L63.1846 25.9306H65.5686L61.6486 35.3066C61.3392 36.0532 60.9499 36.6079 60.4806 36.9706C60.0112 37.3332 59.4299 37.5146 58.7366 37.5146ZM66.6367 34.0906V22.4106H68.7807V34.0906H66.6367ZM74.5514 34.3146C73.6981 34.3146 72.9514 34.1386 72.3114 33.7866C71.6821 33.4346 71.1914 32.9386 70.8394 32.2986C70.4981 31.6479 70.3274 30.8906 70.3274 30.0266C70.3274 29.1839 70.4928 28.4372 70.8234 27.7866C71.1648 27.1359 71.6288 26.6292 72.2154 26.2666C72.8128 25.8932 73.4954 25.7066 74.2634 25.7066C74.9994 25.7066 75.6394 25.8719 76.1834 26.2026C76.7381 26.5332 77.1701 26.9972 77.4794 27.5946C77.7888 28.1919 77.9434 28.8959 77.9434 29.7066C77.9434 29.9092 77.9328 30.1066 77.9114 30.2986C77.9008 30.4906 77.8741 30.6772 77.8314 30.8586H72.4554C72.5941 31.3599 72.8554 31.7492 73.2394 32.0266C73.6341 32.2932 74.1301 32.4266 74.7274 32.4266C75.4741 32.4266 76.1888 32.2399 76.8714 31.8666L77.6234 33.4026C77.2501 33.6799 76.7861 33.9039 76.2314 34.0746C75.6874 34.2346 75.1274 34.3146 74.5514 34.3146ZM74.2634 27.5466C73.7621 27.5466 73.3461 27.7066 73.0154 28.0266C72.6954 28.3359 72.4874 28.7732 72.3914 29.3386H75.8954C75.8101 28.1439 75.2661 27.5466 74.2634 27.5466ZM85.5769 34.0906V25.7546L82.9849 27.2106L81.9769 25.4666L85.9129 23.0826H87.7849V34.0906H85.5769Z" fill="#1E1E1E"/>
<path d="M20.715 52.2384C20.291 52.2384 20.079 51.9744 20.079 51.4464C20.079 51.1184 20.171 50.7544 20.355 50.3544C20.547 49.9464 20.791 49.5624 21.087 49.2024L21.483 49.4784C21.307 49.7344 21.151 50.0064 21.015 50.2944C20.887 50.5824 20.803 50.8504 20.763 51.0984C20.931 51.1144 21.063 51.1744 21.159 51.2784C21.255 51.3744 21.303 51.5104 21.303 51.6864C21.303 51.8544 21.251 51.9904 21.147 52.0944C21.043 52.1904 20.899 52.2384 20.715 52.2384ZM22.443 52.2384C22.019 52.2384 21.807 51.9744 21.807 51.4464C21.807 51.1184 21.899 50.7544 22.083 50.3544C22.275 49.9464 22.519 49.5624 22.815 49.2024L23.211 49.4784C23.035 49.7344 22.879 50.0064 22.743 50.2944C22.615 50.5824 22.531 50.8504 22.491 51.0984C22.659 51.1144 22.791 51.1744 22.887 51.2784C22.983 51.3744 23.031 51.5104 23.031 51.6864C23.031 51.8544 22.979 51.9904 22.875 52.0944C22.771 52.1904 22.627 52.2384 22.443 52.2384ZM23.1252 57.6984L26.5332 49.2984H27.2292L30.6372 57.6984H29.6772L28.8972 55.7184H24.8412L24.0732 57.6984H23.1252ZM25.1532 54.9144H28.5852L26.8692 50.5224L25.1532 54.9144ZM34.0557 55.8144C33.6717 55.8144 33.3237 55.7504 33.0117 55.6224C32.9477 55.7504 32.9157 55.8824 32.9157 56.0184C32.9157 56.2184 32.9717 56.3664 33.0837 56.4624C33.2037 56.5584 33.3877 56.6184 33.6357 56.6424L35.0037 56.7744C35.6197 56.8304 36.0877 56.9904 36.4077 57.2544C36.7357 57.5104 36.8997 57.8744 36.8997 58.3464C36.8997 58.9464 36.6517 59.4104 36.1557 59.7384C35.6677 60.0664 34.9957 60.2304 34.1397 60.2304C33.2677 60.2304 32.5837 60.0584 32.0877 59.7144C31.5917 59.3704 31.3437 58.8944 31.3437 58.2864C31.3437 57.9744 31.4237 57.6944 31.5837 57.4464C31.7517 57.1984 31.9757 57.0064 32.2557 56.8704C32.1357 56.6944 32.0757 56.4784 32.0757 56.2224C32.0757 55.8944 32.1917 55.5824 32.4237 55.2864C32.1917 55.0944 32.0117 54.8624 31.8837 54.5904C31.7557 54.3184 31.6917 54.0184 31.6917 53.6904C31.6917 53.2744 31.7877 52.9104 31.9797 52.5984C32.1797 52.2784 32.4557 52.0264 32.8077 51.8424C33.1677 51.6584 33.5837 51.5664 34.0557 51.5664C34.5197 51.5664 34.9317 51.6584 35.2917 51.8424H37.0317V52.4544L36.0837 52.5384C36.3077 52.8744 36.4197 53.2584 36.4197 53.6904C36.4197 54.0984 36.3197 54.4624 36.1197 54.7824C35.9277 55.1024 35.6517 55.3544 35.2917 55.5384C34.9397 55.7224 34.5277 55.8144 34.0557 55.8144ZM34.0557 55.0584C34.5277 55.0584 34.8957 54.9344 35.1597 54.6864C35.4237 54.4384 35.5557 54.1064 35.5557 53.6904C35.5557 53.2744 35.4237 52.9424 35.1597 52.6944C34.8957 52.4464 34.5277 52.3224 34.0557 52.3224C33.5917 52.3224 33.2237 52.4464 32.9517 52.6944C32.6877 52.9424 32.5557 53.2744 32.5557 53.6904C32.5557 54.1064 32.6877 54.4384 32.9517 54.6864C33.2237 54.9344 33.5917 55.0584 34.0557 55.0584ZM32.1837 58.1784C32.1837 58.5944 32.3597 58.9184 32.7117 59.1504C33.0637 59.3824 33.5597 59.4984 34.1997 59.4984C34.7917 59.4984 35.2437 59.3984 35.5557 59.1984C35.8677 58.9984 36.0237 58.7304 36.0237 58.3944C36.0237 58.1384 35.9317 57.9504 35.7477 57.8304C35.5637 57.7104 35.2477 57.6304 34.7997 57.5904L33.4797 57.4584C33.1917 57.4264 32.9477 57.3664 32.7477 57.2784C32.3717 57.4704 32.1837 57.7704 32.1837 58.1784ZM40.8044 57.8304C40.2044 57.8304 39.6844 57.7024 39.2444 57.4464C38.8044 57.1824 38.4604 56.8184 38.2124 56.3544C37.9724 55.8824 37.8524 55.3344 37.8524 54.7104C37.8524 54.0944 37.9684 53.5504 38.2004 53.0784C38.4324 52.6064 38.7524 52.2384 39.1604 51.9744C39.5684 51.7024 40.0364 51.5664 40.5644 51.5664C41.3404 51.5664 41.9524 51.8304 42.4004 52.3584C42.8564 52.8784 43.0844 53.5784 43.0844 54.4584C43.0844 54.5464 43.0804 54.6504 43.0724 54.7704C43.0644 54.8904 43.0524 54.9904 43.0364 55.0704H38.7524C38.8164 55.6784 39.0284 56.1584 39.3884 56.5104C39.7484 56.8544 40.2364 57.0264 40.8524 57.0264C41.4604 57.0264 41.9964 56.8704 42.4604 56.5584L42.8324 57.2064C42.5764 57.4064 42.2724 57.5624 41.9204 57.6744C41.5764 57.7784 41.2044 57.8304 40.8044 57.8304ZM40.5644 52.3704C40.0604 52.3704 39.6484 52.5504 39.3284 52.9104C39.0084 53.2624 38.8204 53.7344 38.7644 54.3264H42.2324C42.2084 53.7024 42.0524 53.2224 41.7644 52.8864C41.4844 52.5424 41.0844 52.3704 40.5644 52.3704ZM44.5645 57.6984V51.6984H45.3445L45.3685 52.8144C45.5525 52.4384 45.8245 52.1384 46.1845 51.9144C46.5525 51.6824 46.9645 51.5664 47.4205 51.5664C48.9165 51.5664 49.6645 52.4544 49.6645 54.2304V57.6984H48.8005V54.2544C48.8005 53.6304 48.6765 53.1624 48.4285 52.8504C48.1885 52.5304 47.8085 52.3704 47.2885 52.3704C46.7285 52.3704 46.2765 52.5624 45.9325 52.9464C45.5965 53.3304 45.4285 53.8344 45.4285 54.4584V57.6984H44.5645ZM53.2348 57.7704C52.1708 57.7704 51.6388 57.1384 51.6388 55.8744V52.4664H50.8228V51.6984H51.6388V49.9104H52.5028V51.6984H54.2068V52.4664H52.5028V55.8744C52.5028 56.2664 52.5748 56.5464 52.7188 56.7144C52.8708 56.8824 53.0868 56.9664 53.3668 56.9664C53.6148 56.9664 53.8788 56.8864 54.1588 56.7264L54.5068 57.3384C54.3468 57.4664 54.1548 57.5704 53.9308 57.6504C53.7148 57.7304 53.4828 57.7704 53.2348 57.7704ZM58.8949 50.3904C58.7189 50.3904 58.5749 50.3424 58.4629 50.2464C58.3589 50.1424 58.3069 49.9984 58.3069 49.8144C58.3069 49.6304 58.3589 49.4904 58.4629 49.3944C58.5749 49.2904 58.7189 49.2384 58.8949 49.2384C59.0709 49.2384 59.2109 49.2904 59.3149 49.3944C59.4269 49.4904 59.4829 49.6304 59.4829 49.8144C59.4829 49.9984 59.4269 50.1424 59.3149 50.2464C59.2109 50.3424 59.0709 50.3904 58.8949 50.3904ZM58.4629 57.6984V51.6984H59.3269V57.6984H58.4629ZM63.748 57.8304C63.148 57.8304 62.632 57.7024 62.2 57.4464C61.776 57.1824 61.448 56.8184 61.216 56.3544C60.984 55.8824 60.868 55.3384 60.868 54.7224C60.868 54.0904 60.984 53.5384 61.216 53.0664C61.456 52.5944 61.792 52.2264 62.224 51.9624C62.656 51.6984 63.16 51.5664 63.736 51.5664C64.44 51.5664 65.048 51.7584 65.56 52.1424L65.176 52.8144C64.96 52.6704 64.736 52.5664 64.504 52.5024C64.272 52.4384 64.032 52.4064 63.784 52.4064C63.128 52.4064 62.628 52.6184 62.284 53.0424C61.948 53.4664 61.78 54.0184 61.78 54.6984C61.78 55.4024 61.96 55.9624 62.32 56.3784C62.68 56.7864 63.188 56.9904 63.844 56.9904C64.108 56.9904 64.36 56.9544 64.6 56.8824C64.848 56.8104 65.096 56.7024 65.344 56.5584L65.716 57.2064C65.468 57.4064 65.172 57.5624 64.828 57.6744C64.484 57.7784 64.124 57.8304 63.748 57.8304ZM69.3493 57.8304C68.7733 57.8304 68.2693 57.6984 67.8373 57.4344C67.4053 57.1704 67.0693 56.8024 66.8293 56.3304C66.5973 55.8584 66.4813 55.3144 66.4813 54.6984C66.4813 54.0744 66.5973 53.5304 66.8293 53.0664C67.0693 52.5944 67.4053 52.2264 67.8373 51.9624C68.2693 51.6984 68.7733 51.5664 69.3493 51.5664C69.9333 51.5664 70.4373 51.6984 70.8613 51.9624C71.2933 52.2264 71.6253 52.5944 71.8573 53.0664C72.0973 53.5304 72.2173 54.0744 72.2173 54.6984C72.2173 55.3144 72.0973 55.8584 71.8573 56.3304C71.6253 56.8024 71.2933 57.1704 70.8613 57.4344C70.4373 57.6984 69.9333 57.8304 69.3493 57.8304ZM69.3493 57.0264C69.9573 57.0264 70.4373 56.8104 70.7893 56.3784C71.1413 55.9464 71.3173 55.3864 71.3173 54.6984C71.3173 54.0104 71.1413 53.4504 70.7893 53.0184C70.4373 52.5864 69.9573 52.3704 69.3493 52.3704C68.7413 52.3704 68.2613 52.5864 67.9093 53.0184C67.5573 53.4504 67.3813 54.0104 67.3813 54.6984C67.3813 55.3864 67.5573 55.9464 67.9093 56.3784C68.2613 56.8104 68.7413 57.0264 69.3493 57.0264ZM73.7559 57.6984V51.6984H74.5359L74.5599 52.8144C74.7439 52.4384 75.0159 52.1384 75.3759 51.9144C75.7439 51.6824 76.1559 51.5664 76.6119 51.5664C78.1079 51.5664 78.8559 52.4544 78.8559 54.2304V57.6984H77.9919V54.2544C77.9919 53.6304 77.8679 53.1624 77.6199 52.8504C77.3799 52.5304 76.9999 52.3704 76.4799 52.3704C75.9199 52.3704 75.4679 52.5624 75.1239 52.9464C74.7879 53.3304 74.6199 53.8344 74.6199 54.4584V57.6984H73.7559ZM85.7876 57.8304C85.2436 57.8304 84.7636 57.6984 84.3476 57.4344C83.9396 57.1704 83.6196 56.8024 83.3876 56.3304C83.1636 55.8584 83.0516 55.3144 83.0516 54.6984C83.0516 54.0744 83.1676 53.5264 83.3996 53.0544C83.6316 52.5824 83.9516 52.2184 84.3596 51.9624C84.7756 51.6984 85.2596 51.5664 85.8116 51.5664C86.2676 51.5664 86.6796 51.6784 87.0476 51.9024C87.4156 52.1184 87.6956 52.4024 87.8876 52.7544V48.9384H88.7516V57.6984H87.9716L87.9356 56.5824C87.7436 56.9744 87.4596 57.2824 87.0836 57.5064C86.7156 57.7224 86.2836 57.8304 85.7876 57.8304ZM85.9196 57.0264C86.5116 57.0264 86.9876 56.8144 87.3476 56.3904C87.7076 55.9584 87.8876 55.3904 87.8876 54.6864C87.8876 53.9904 87.7076 53.4304 87.3476 53.0064C86.9956 52.5824 86.5196 52.3704 85.9196 52.3704C85.5276 52.3704 85.1836 52.4704 84.8876 52.6704C84.5916 52.8624 84.3596 53.1344 84.1916 53.4864C84.0316 53.8304 83.9516 54.2344 83.9516 54.6984C83.9516 55.3944 84.1316 55.9584 84.4916 56.3904C84.8596 56.8144 85.3356 57.0264 85.9196 57.0264ZM90.6661 57.6984V51.6984H91.4461L91.4701 52.8384C91.6301 52.4384 91.8461 52.1344 92.1181 51.9264C92.3901 51.7104 92.7101 51.6024 93.0781 51.6024C93.4541 51.6024 93.7781 51.7064 94.0501 51.9144L93.6421 52.6104C93.4581 52.5064 93.2421 52.4544 92.9941 52.4544C92.5381 52.4544 92.1781 52.6704 91.9141 53.1024C91.6581 53.5344 91.5301 54.1304 91.5301 54.8904V57.6984H90.6661ZM97.3219 57.8304C96.7459 57.8304 96.2419 57.6984 95.8099 57.4344C95.3779 57.1704 95.0419 56.8024 94.8019 56.3304C94.5699 55.8584 94.4539 55.3144 94.4539 54.6984C94.4539 54.0744 94.5699 53.5304 94.8019 53.0664C95.0419 52.5944 95.3779 52.2264 95.8099 51.9624C96.2419 51.6984 96.7459 51.5664 97.3219 51.5664C97.9059 51.5664 98.4099 51.6984 98.8339 51.9624C99.2659 52.2264 99.5979 52.5944 99.8299 53.0664C100.07 53.5304 100.19 54.0744 100.19 54.6984C100.19 55.3144 100.07 55.8584 99.8299 56.3304C99.5979 56.8024 99.2659 57.1704 98.8339 57.4344C98.4099 57.6984 97.9059 57.8304 97.3219 57.8304ZM97.3219 57.0264C97.9299 57.0264 98.4099 56.8104 98.7619 56.3784C99.1139 55.9464 99.2899 55.3864 99.2899 54.6984C99.2899 54.0104 99.1139 53.4504 98.7619 53.0184C98.4099 52.5864 97.9299 52.3704 97.3219 52.3704C96.7139 52.3704 96.2339 52.5864 95.8819 53.0184C95.5299 53.4504 95.3539 54.0104 95.3539 54.6984C95.3539 55.3864 95.5299 55.9464 95.8819 56.3784C96.2339 56.8104 96.7139 57.0264 97.3219 57.0264ZM101.729 60.0984V51.6984H102.509L102.545 52.8144C102.737 52.4224 103.021 52.1184 103.397 51.9024C103.773 51.6784 104.205 51.5664 104.693 51.5664C105.245 51.5664 105.725 51.6984 106.133 51.9624C106.541 52.2264 106.857 52.5944 107.081 53.0664C107.313 53.5304 107.429 54.0744 107.429 54.6984C107.429 55.3144 107.313 55.8584 107.081 56.3304C106.857 56.8024 106.537 57.1704 106.121 57.4344C105.713 57.6984 105.233 57.8304 104.681 57.8304C104.225 57.8304 103.809 57.7224 103.433 57.5064C103.065 57.2904 102.785 57.0064 102.593 56.6544V60.0984H101.729ZM104.561 57.0264C105.153 57.0264 105.629 56.8104 105.989 56.3784C106.349 55.9464 106.529 55.3864 106.529 54.6984C106.529 54.0024 106.349 53.4424 105.989 53.0184C105.629 52.5864 105.157 52.3704 104.573 52.3704C103.973 52.3704 103.493 52.5824 103.133 53.0064C102.773 53.4304 102.593 53.9944 102.593 54.6984C102.593 55.4024 102.769 55.9664 103.121 56.3904C103.481 56.8144 103.961 57.0264 104.561 57.0264ZM108.692 52.2984L108.296 52.0224C108.472 51.7664 108.624 51.4944 108.752 51.2064C108.888 50.9184 108.976 50.6504 109.016 50.4024C108.848 50.3864 108.716 50.3304 108.62 50.2344C108.524 50.1304 108.476 49.9904 108.476 49.8144C108.476 49.6464 108.528 49.5144 108.632 49.4184C108.744 49.3144 108.888 49.2624 109.064 49.2624C109.488 49.2624 109.7 49.5264 109.7 50.0544C109.7 50.3744 109.604 50.7384 109.412 51.1464C109.228 51.5544 108.988 51.9384 108.692 52.2984ZM110.42 52.2984L110.024 52.0224C110.2 51.7664 110.352 51.4944 110.48 51.2064C110.616 50.9184 110.704 50.6504 110.744 50.4024C110.576 50.3864 110.444 50.3304 110.348 50.2344C110.252 50.1304 110.204 49.9904 110.204 49.8144C110.204 49.6464 110.256 49.5144 110.36 49.4184C110.472 49.3144 110.616 49.2624 110.792 49.2624C111.216 49.2624 111.428 49.5264 111.428 50.0544C111.428 50.3744 111.332 50.7384 111.14 51.1464C110.956 51.5544 110.716 51.9384 110.42 52.2984Z" fill="#707070"/>
<path d="M165.256 34.3306C164.808 34.3306 164.344 34.2772 163.864 34.1706C163.395 34.0746 162.957 33.9412 162.552 33.7706C162.147 33.5999 161.821 33.4132 161.576 33.2106L162.456 31.3706C162.925 31.6372 163.411 31.8506 163.912 32.0106C164.424 32.1706 164.957 32.2506 165.512 32.2506C166.707 32.2506 167.304 31.8666 167.304 31.0986C167.304 30.7679 167.187 30.4959 166.952 30.2826C166.728 30.0586 166.269 29.8452 165.576 29.6426L164.744 29.4026C163.688 29.0932 162.936 28.6612 162.488 28.1066C162.051 27.5412 161.832 26.8532 161.832 26.0426C161.832 25.3599 161.992 24.7679 162.312 24.2666C162.643 23.7546 163.096 23.3599 163.672 23.0826C164.259 22.7946 164.941 22.6506 165.72 22.6506C166.413 22.6506 167.08 22.7466 167.72 22.9386C168.36 23.1199 168.909 23.3706 169.368 23.6906L168.504 25.4506C168.109 25.2266 167.688 25.0506 167.24 24.9226C166.803 24.7946 166.349 24.7306 165.88 24.7306C165.283 24.7306 164.835 24.8319 164.536 25.0346C164.248 25.2372 164.104 25.5039 164.104 25.8346C164.104 26.1652 164.221 26.4426 164.456 26.6666C164.691 26.8799 165.149 27.0879 165.832 27.2906L166.664 27.5306C167.72 27.8292 168.467 28.2612 168.904 28.8266C169.352 29.3919 169.576 30.0799 169.576 30.8906C169.576 31.9786 169.192 32.8266 168.424 33.4346C167.667 34.0319 166.611 34.3306 165.256 34.3306ZM174.251 34.2346C172.448 34.2346 171.547 33.1199 171.547 30.8906V27.8826H170.587V25.9306H171.547V23.7386H173.691V25.9306H175.851V27.8826H173.691V30.8586C173.691 31.7972 174.038 32.2666 174.731 32.2666C175.03 32.2666 175.328 32.1919 175.627 32.0426L176.379 33.5626C175.814 34.0106 175.104 34.2346 174.251 34.2346ZM178.484 37.5146C178.121 37.5146 177.758 37.4559 177.396 37.3386C177.044 37.2319 176.761 37.0879 176.548 36.9066L177.38 35.2266C177.604 35.3439 177.79 35.4239 177.94 35.4666C178.1 35.5199 178.26 35.5466 178.42 35.5466C178.697 35.5466 178.921 35.4666 179.092 35.3066C179.273 35.1572 179.449 34.8906 179.62 34.5066L179.972 33.7226L176.676 25.9306H179.044L181.028 31.2266L182.932 25.9306H185.316L181.396 35.3066C181.086 36.0532 180.697 36.6079 180.228 36.9706C179.758 37.3332 179.177 37.5146 178.484 37.5146ZM186.384 34.0906V22.4106H188.528V34.0906H186.384ZM194.299 34.3146C193.445 34.3146 192.699 34.1386 192.059 33.7866C191.429 33.4346 190.939 32.9386 190.587 32.2986C190.245 31.6479 190.075 30.8906 190.075 30.0266C190.075 29.1839 190.24 28.4372 190.571 27.7866C190.912 27.1359 191.376 26.6292 191.963 26.2666C192.56 25.8932 193.243 25.7066 194.011 25.7066C194.747 25.7066 195.387 25.8719 195.931 26.2026C196.485 26.5332 196.917 26.9972 197.227 27.5946C197.536 28.1919 197.691 28.8959 197.691 29.7066C197.691 29.9092 197.68 30.1066 197.659 30.2986C197.648 30.4906 197.621 30.6772 197.579 30.8586H192.203C192.341 31.3599 192.603 31.7492 192.987 32.0266C193.381 32.2932 193.877 32.4266 194.475 32.4266C195.221 32.4266 195.936 32.2399 196.619 31.8666L197.371 33.4026C196.997 33.6799 196.533 33.9039 195.979 34.0746C195.435 34.2346 194.875 34.3146 194.299 34.3146ZM194.011 27.5466C193.509 27.5466 193.093 27.7066 192.763 28.0266C192.443 28.3359 192.235 28.7732 192.139 29.3386H195.643C195.557 28.1439 195.013 27.5466 194.011 27.5466ZM202.14 34.0906V32.2986L205.484 29.0346C205.943 28.5866 206.295 28.2132 206.54 27.9146C206.796 27.6052 206.977 27.3279 207.084 27.0826C207.191 26.8372 207.244 26.5919 207.244 26.3466C207.244 25.3546 206.615 24.8586 205.356 24.8586C204.513 24.8586 203.687 25.1519 202.876 25.7386L201.98 24.2026C202.513 23.7759 203.089 23.4506 203.708 23.2266C204.337 23.0026 204.967 22.8906 205.596 22.8906C206.833 22.8906 207.788 23.1679 208.46 23.7226C209.132 24.2772 209.468 25.0612 209.468 26.0746C209.468 26.7786 209.292 27.4666 208.94 28.1386C208.588 28.7999 207.953 29.5466 207.036 30.3786L205.084 32.1706H209.74V34.0906H202.14Z" fill="#1E1E1E"/>
<path d="M150.589 52.2384C150.165 52.2384 149.953 51.9744 149.953 51.4464C149.953 51.1184 150.045 50.7544 150.229 50.3544C150.421 49.9464 150.665 49.5624 150.961 49.2024L151.357 49.4784C151.181 49.7344 151.025 50.0064 150.889 50.2944C150.761 50.5824 150.677 50.8504 150.637 51.0984C150.805 51.1144 150.937 51.1744 151.033 51.2784C151.129 51.3744 151.177 51.5104 151.177 51.6864C151.177 51.8544 151.125 51.9904 151.021 52.0944C150.917 52.1904 150.773 52.2384 150.589 52.2384ZM152.317 52.2384C151.893 52.2384 151.681 51.9744 151.681 51.4464C151.681 51.1184 151.773 50.7544 151.957 50.3544C152.149 49.9464 152.393 49.5624 152.689 49.2024L153.085 49.4784C152.909 49.7344 152.753 50.0064 152.617 50.2944C152.489 50.5824 152.405 50.8504 152.365 51.0984C152.533 51.1144 152.665 51.1744 152.761 51.2784C152.857 51.3744 152.905 51.5104 152.905 51.6864C152.905 51.8544 152.853 51.9904 152.749 52.0944C152.645 52.1904 152.501 52.2384 152.317 52.2384ZM154.824 57.6984V49.2984H156.72C157.736 49.2984 158.524 49.4944 159.084 49.8864C159.652 50.2784 159.936 50.8264 159.936 51.5304C159.936 51.9544 159.828 52.3224 159.612 52.6344C159.404 52.9384 159.104 53.1744 158.712 53.3424C159.84 53.6384 160.404 54.2984 160.404 55.3224C160.404 56.0984 160.096 56.6904 159.48 57.0984C158.864 57.4984 157.972 57.6984 156.804 57.6984H154.824ZM156.732 50.1384H155.736V53.0184H156.732C158.252 53.0184 159.012 52.5424 159.012 51.5904C159.012 50.6224 158.252 50.1384 156.732 50.1384ZM156.816 53.8224H155.736V56.8584H156.816C157.72 56.8584 158.384 56.7384 158.808 56.4984C159.24 56.2504 159.456 55.8664 159.456 55.3464C159.456 54.8264 159.24 54.4424 158.808 54.1944C158.376 53.9464 157.712 53.8224 156.816 53.8224ZM163.94 57.8304C163.252 57.8304 162.728 57.6104 162.368 57.1704C162.008 56.7224 161.828 56.0704 161.828 55.2144V51.6984H162.692V55.1784C162.692 56.4024 163.168 57.0144 164.12 57.0144C164.472 57.0144 164.78 56.9304 165.044 56.7624C165.316 56.5864 165.528 56.3464 165.68 56.0424C165.832 55.7384 165.908 55.3944 165.908 55.0104V51.6984H166.772V57.6984H165.992L165.956 56.6424C165.772 57.0104 165.504 57.3024 165.152 57.5184C164.8 57.7264 164.396 57.8304 163.94 57.8304ZM170.628 57.7704C169.564 57.7704 169.032 57.1384 169.032 55.8744V52.4664H168.216V51.6984H169.032V49.9104H169.896V51.6984H171.6V52.4664H169.896V55.8744C169.896 56.2664 169.968 56.5464 170.112 56.7144C170.264 56.8824 170.48 56.9664 170.76 56.9664C171.008 56.9664 171.272 56.8864 171.552 56.7264L171.9 57.3384C171.74 57.4664 171.548 57.5704 171.324 57.6504C171.108 57.7304 170.876 57.7704 170.628 57.7704ZM175.081 57.7704C174.017 57.7704 173.485 57.1384 173.485 55.8744V52.4664H172.669V51.6984H173.485V49.9104H174.349V51.6984H176.053V52.4664H174.349V55.8744C174.349 56.2664 174.421 56.5464 174.565 56.7144C174.717 56.8824 174.933 56.9664 175.213 56.9664C175.461 56.9664 175.725 56.8864 176.005 56.7264L176.353 57.3384C176.193 57.4664 176.001 57.5704 175.777 57.6504C175.561 57.7304 175.329 57.7704 175.081 57.7704ZM179.969 57.8304C179.393 57.8304 178.889 57.6984 178.457 57.4344C178.025 57.1704 177.689 56.8024 177.449 56.3304C177.217 55.8584 177.101 55.3144 177.101 54.6984C177.101 54.0744 177.217 53.5304 177.449 53.0664C177.689 52.5944 178.025 52.2264 178.457 51.9624C178.889 51.6984 179.393 51.5664 179.969 51.5664C180.553 51.5664 181.057 51.6984 181.481 51.9624C181.913 52.2264 182.245 52.5944 182.477 53.0664C182.717 53.5304 182.837 54.0744 182.837 54.6984C182.837 55.3144 182.717 55.8584 182.477 56.3304C182.245 56.8024 181.913 57.1704 181.481 57.4344C181.057 57.6984 180.553 57.8304 179.969 57.8304ZM179.969 57.0264C180.577 57.0264 181.057 56.8104 181.409 56.3784C181.761 55.9464 181.937 55.3864 181.937 54.6984C181.937 54.0104 181.761 53.4504 181.409 53.0184C181.057 52.5864 180.577 52.3704 179.969 52.3704C179.361 52.3704 178.881 52.5864 178.529 53.0184C178.177 53.4504 178.001 54.0104 178.001 54.6984C178.001 55.3864 178.177 55.9464 178.529 56.3784C178.881 56.8104 179.361 57.0264 179.969 57.0264ZM184.376 57.6984V51.6984H185.156L185.18 52.8144C185.364 52.4384 185.636 52.1384 185.996 51.9144C186.364 51.6824 186.776 51.5664 187.232 51.5664C188.728 51.5664 189.476 52.4544 189.476 54.2304V57.6984H188.612V54.2544C188.612 53.6304 188.488 53.1624 188.24 52.8504C188 52.5304 187.62 52.3704 187.1 52.3704C186.54 52.3704 186.088 52.5624 185.744 52.9464C185.408 53.3304 185.24 53.8344 185.24 54.4584V57.6984H184.376ZM196.408 57.8304C195.864 57.8304 195.384 57.6984 194.968 57.4344C194.56 57.1704 194.24 56.8024 194.008 56.3304C193.784 55.8584 193.672 55.3144 193.672 54.6984C193.672 54.0744 193.788 53.5264 194.02 53.0544C194.252 52.5824 194.572 52.2184 194.98 51.9624C195.396 51.6984 195.88 51.5664 196.432 51.5664C196.888 51.5664 197.3 51.6784 197.668 51.9024C198.036 52.1184 198.316 52.4024 198.508 52.7544V48.9384H199.372V57.6984H198.592L198.556 56.5824C198.364 56.9744 198.08 57.2824 197.704 57.5064C197.336 57.7224 196.904 57.8304 196.408 57.8304ZM196.54 57.0264C197.132 57.0264 197.608 56.8144 197.968 56.3904C198.328 55.9584 198.508 55.3904 198.508 54.6864C198.508 53.9904 198.328 53.4304 197.968 53.0064C197.616 52.5824 197.14 52.3704 196.54 52.3704C196.148 52.3704 195.804 52.4704 195.508 52.6704C195.212 52.8624 194.98 53.1344 194.812 53.4864C194.652 53.8304 194.572 54.2344 194.572 54.6984C194.572 55.3944 194.752 55.9584 195.112 56.3904C195.48 56.8144 195.956 57.0264 196.54 57.0264ZM201.286 57.6984V51.6984H202.066L202.09 52.8384C202.25 52.4384 202.466 52.1344 202.738 51.9264C203.01 51.7104 203.33 51.6024 203.698 51.6024C204.074 51.6024 204.398 51.7064 204.67 51.9144L204.262 52.6104C204.078 52.5064 203.862 52.4544 203.614 52.4544C203.158 52.4544 202.798 52.6704 202.534 53.1024C202.278 53.5344 202.15 54.1304 202.15 54.8904V57.6984H201.286ZM207.942 57.8304C207.366 57.8304 206.862 57.6984 206.43 57.4344C205.998 57.1704 205.662 56.8024 205.422 56.3304C205.19 55.8584 205.074 55.3144 205.074 54.6984C205.074 54.0744 205.19 53.5304 205.422 53.0664C205.662 52.5944 205.998 52.2264 206.43 51.9624C206.862 51.6984 207.366 51.5664 207.942 51.5664C208.526 51.5664 209.03 51.6984 209.454 51.9624C209.886 52.2264 210.218 52.5944 210.45 53.0664C210.69 53.5304 210.81 54.0744 210.81 54.6984C210.81 55.3144 210.69 55.8584 210.45 56.3304C210.218 56.8024 209.886 57.1704 209.454 57.4344C209.03 57.6984 208.526 57.8304 207.942 57.8304ZM207.942 57.0264C208.55 57.0264 209.03 56.8104 209.382 56.3784C209.734 55.9464 209.91 55.3864 209.91 54.6984C209.91 54.0104 209.734 53.4504 209.382 53.0184C209.03 52.5864 208.55 52.3704 207.942 52.3704C207.334 52.3704 206.854 52.5864 206.502 53.0184C206.15 53.4504 205.974 54.0104 205.974 54.6984C205.974 55.3864 206.15 55.9464 206.502 56.3784C206.854 56.8104 207.334 57.0264 207.942 57.0264ZM212.349 60.0984V51.6984H213.129L213.165 52.8144C213.357 52.4224 213.641 52.1184 214.017 51.9024C214.393 51.6784 214.825 51.5664 215.313 51.5664C215.865 51.5664 216.345 51.6984 216.753 51.9624C217.161 52.2264 217.477 52.5944 217.701 53.0664C217.933 53.5304 218.049 54.0744 218.049 54.6984C218.049 55.3144 217.933 55.8584 217.701 56.3304C217.477 56.8024 217.157 57.1704 216.741 57.4344C216.333 57.6984 215.853 57.8304 215.301 57.8304C214.845 57.8304 214.429 57.7224 214.053 57.5064C213.685 57.2904 213.405 57.0064 213.213 56.6544V60.0984H212.349ZM215.181 57.0264C215.773 57.0264 216.249 56.8104 216.609 56.3784C216.969 55.9464 217.149 55.3864 217.149 54.6984C217.149 54.0024 216.969 53.4424 216.609 53.0184C216.249 52.5864 215.777 52.3704 215.193 52.3704C214.593 52.3704 214.113 52.5824 213.753 53.0064C213.393 53.4304 213.213 53.9944 213.213 54.6984C213.213 55.4024 213.389 55.9664 213.741 56.3904C214.101 56.8144 214.581 57.0264 215.181 57.0264ZM219.312 52.2984L218.916 52.0224C219.092 51.7664 219.244 51.4944 219.372 51.2064C219.508 50.9184 219.596 50.6504 219.636 50.4024C219.468 50.3864 219.336 50.3304 219.24 50.2344C219.144 50.1304 219.096 49.9904 219.096 49.8144C219.096 49.6464 219.148 49.5144 219.252 49.4184C219.364 49.3144 219.508 49.2624 219.684 49.2624C220.108 49.2624 220.32 49.5264 220.32 50.0544C220.32 50.3744 220.224 50.7384 220.032 51.1464C219.848 51.5544 219.608 51.9384 219.312 52.2984ZM221.04 52.2984L220.644 52.0224C220.82 51.7664 220.972 51.4944 221.1 51.2064C221.236 50.9184 221.324 50.6504 221.364 50.4024C221.196 50.3864 221.064 50.3304 220.968 50.2344C220.872 50.1304 220.824 49.9904 220.824 49.8144C220.824 49.6464 220.876 49.5144 220.98 49.4184C221.092 49.3144 221.236 49.2624 221.412 49.2624C221.836 49.2624 222.048 49.5264 222.048 50.0544C222.048 50.3744 221.952 50.7384 221.76 51.1464C221.576 51.5544 221.336 51.9384 221.04 52.2984Z" fill="#707070"/>
<line x1="0.000403216" y1="78.7501" x2="250" y2="78.9517" stroke="#D2DBE5" stroke-opacity="0.5"/>
<line x1="125.5" y1="-1.04382" x2="125.5" y2="255.682" stroke="#D2DBE5"/>
</g>
<defs>
<filter id="filter0_d_20_4177" x="33.2661" y="87.0132" width="63.9736" height="63.9736" filterUnits="userSpaceOnUse" color-interpolation-filters="sRGB">
<feFlood flood-opacity="0" result="BackgroundImageFix"/>
<feColorMatrix in="SourceAlpha" type="matrix" values="0 0 0 0 0 0 0 0 0 0 0 0 0 0 0 0 0 0 127 0" result="hardAlpha"/>
<feOffset dy="2"/>
<feGaussianBlur stdDeviation="6"/>
<feColorMatrix type="matrix" values="0 0 0 0 0 0 0 0 0 0.133333 0 0 0 0 0.356863 0 0 0 0.18 0"/>
<feBlend mode="normal" in2="BackgroundImageFix" result="effect1_dropShadow_20_4177"/>
<feBlend mode="normal" in="SourceGraphic" in2="effect1_dropShadow_20_4177" result="shape"/>
</filter>
<filter id="filter1_d_20_4177" x="37.665" y="177.781" width="55.1758" height="55.1758" filterUnits="userSpaceOnUse" color-interpolation-filters="sRGB">
<feFlood flood-opacity="0" result="BackgroundImageFix"/>
<feColorMatrix in="SourceAlpha" type="matrix" values="0 0 0 0 0 0 0 0 0 0 0 0 0 0 0 0 0 0 127 0" result="hardAlpha"/>
<feOffset dy="2"/>
<feGaussianBlur stdDeviation="6"/>
<feColorMatrix type="matrix" values="0 0 0 0 0 0 0 0 0 0.133333 0 0 0 0 0.356863 0 0 0 0.18 0"/>
<feBlend mode="normal" in2="BackgroundImageFix" result="effect1_dropShadow_20_4177"/>
<feBlend mode="normal" in="SourceGraphic" in2="effect1_dropShadow_20_4177" result="shape"/>
</filter>
<filter id="filter2_d_20_4177" x="37.665" y="136.796" width="55.1758" height="55.1758" filterUnits="userSpaceOnUse" color-interpolation-filters="sRGB">
<feFlood flood-opacity="0" result="BackgroundImageFix"/>
<feColorMatrix in="SourceAlpha" type="matrix" values="0 0 0 0 0 0 0 0 0 0 0 0 0 0 0 0 0 0 127 0" result="hardAlpha"/>
<feOffset dy="2"/>
<feGaussianBlur stdDeviation="6"/>
<feColorMatrix type="matrix" values="0 0 0 0 0 0 0 0 0 0.133333 0 0 0 0 0.356863 0 0 0 0.18 0"/>
<feBlend mode="normal" in2="BackgroundImageFix" result="effect1_dropShadow_20_4177"/>
<feBlend mode="normal" in="SourceGraphic" in2="effect1_dropShadow_20_4177" result="shape"/>
</filter>
<filter id="filter3_d_20_4177" x="156" y="90" width="60" height="60" filterUnits="userSpaceOnUse" color-interpolation-filters="sRGB">
<feFlood flood-opacity="0" result="BackgroundImageFix"/>
<feColorMatrix in="SourceAlpha" type="matrix" values="0 0 0 0 0 0 0 0 0 0 0 0 0 0 0 0 0 0 127 0" result="hardAlpha"/>
<feOffset dy="3"/>
<feGaussianBlur stdDeviation="3"/>
<feComposite in2="hardAlpha" operator="out"/>
<feColorMatrix type="matrix" values="0 0 0 0 0 0 0 0 0 0.133333 0 0 0 0 0.356863 0 0 0 0.1 0"/>
<feBlend mode="normal" in2="BackgroundImageFix" result="effect1_dropShadow_20_4177"/>
<feBlend mode="normal" in="SourceGraphic" in2="effect1_dropShadow_20_4177" result="shape"/>
</filter>
<filter id="filter4_d_20_4177" x="156" y="144.506" width="60" height="60" filterUnits="userSpaceOnUse" color-interpolation-filters="sRGB">
<feFlood flood-opacity="0" result="BackgroundImageFix"/>
<feColorMatrix in="SourceAlpha" type="matrix" values="0 0 0 0 0 0 0 0 0 0 0 0 0 0 0 0 0 0 127 0" result="hardAlpha"/>
<feOffset dy="3"/>
<feGaussianBlur stdDeviation="3"/>
<feComposite in2="hardAlpha" operator="out"/>
<feColorMatrix type="matrix" values="0 0 0 0 0 0 0 0 0 0.133333 0 0 0 0 0.356863 0 0 0 0.1 0"/>
<feBlend mode="normal" in2="BackgroundImageFix" result="effect1_dropShadow_20_4177"/>
<feBlend mode="normal" in="SourceGraphic" in2="effect1_dropShadow_20_4177" result="shape"/>
</filter>
<clipPath id="clip0_20_4177">
<rect width="250" height="254" rx="8" fill="white"/>
</clipPath>
</defs>
</svg>
