<svg width="56" height="56" viewBox="0 0 56 56" fill="none" xmlns="http://www.w3.org/2000/svg">
<g filter="url(#filter0_d_20_4186)">
<circle cx="27.5879" cy="25.5879" r="15.5879" fill="#EC111A"/>
<path d="M31.7879 20.4908H27.5879C25.1937 20.4908 23.2213 22.2992 22.9634 24.6263C22.5952 23.9599 22.3856 23.194 22.3856 22.3771C22.3856 19.8082 24.4682 17.7257 27.0371 17.7257H34.2816L31.7879 20.4908Z" fill="white"/>
<path d="M23.3906 29.7963H27.5906C29.9849 29.7963 31.9572 27.9879 32.2152 25.6608C32.5833 26.3272 32.7929 27.093 32.7929 27.9099C32.7929 30.4788 30.7104 32.5614 28.1415 32.5614H20.8943L23.3906 29.7963Z" fill="white"/>
<path fill-rule="evenodd" clip-rule="evenodd" d="M27.588 21.4072C29.6523 21.4072 31.3255 23.0805 31.3256 25.1447C31.3256 27.209 29.6523 28.8826 27.588 28.8826C25.5237 28.8826 23.8501 27.2091 23.8501 25.1447C23.8502 23.0805 25.5237 21.4072 27.588 21.4072ZM27.828 23.0727C27.7662 22.9491 27.5892 22.9491 27.5273 23.0727L27.0936 23.941C26.9627 24.2018 26.7522 24.4133 26.4915 24.5432L25.6231 24.9769C25.4995 25.0387 25.4995 25.2158 25.6231 25.2775L26.4915 25.711C26.7523 25.8419 26.9637 26.0526 27.0936 26.3134L27.5273 27.1818C27.5892 27.3052 27.7662 27.3053 27.828 27.1818L28.2614 26.3134C28.3923 26.0526 28.6031 25.8409 28.8639 25.711L29.7322 25.2775C29.8557 25.2157 29.8557 25.0388 29.7322 24.9769L28.8639 24.5432C28.6031 24.4123 28.3913 24.2018 28.2614 23.941L27.828 23.0727Z" fill="white"/>
</g>
<defs>
<filter id="filter0_d_20_4186" x="0" y="0" width="55.1758" height="55.1758" filterUnits="userSpaceOnUse" color-interpolation-filters="sRGB">
<feFlood flood-opacity="0" result="BackgroundImageFix"/>
<feColorMatrix in="SourceAlpha" type="matrix" values="0 0 0 0 0 0 0 0 0 0 0 0 0 0 0 0 0 0 127 0" result="hardAlpha"/>
<feOffset dy="2"/>
<feGaussianBlur stdDeviation="6"/>
<feColorMatrix type="matrix" values="0 0 0 0 0 0 0 0 0 0.133333 0 0 0 0 0.356863 0 0 0 0.18 0"/>
<feBlend mode="normal" in2="BackgroundImageFix" result="effect1_dropShadow_20_4186"/>
<feBlend mode="normal" in="SourceGraphic" in2="effect1_dropShadow_20_4186" result="shape"/>
</filter>
</defs>
</svg>
