<svg width="64" height="64" viewBox="0 0 64 64" fill="none" xmlns="http://www.w3.org/2000/svg">
<g filter="url(#filter0_d_20_4178)">
<circle cx="31.9868" cy="29.9868" r="19.9868" fill="#EC111A"/>
<path d="M37.3721 23.4513H31.9869C28.917 23.4513 26.3881 25.77 26.0573 28.7538C25.5853 27.8993 25.3165 26.9174 25.3165 25.87C25.3165 22.5761 27.9867 19.9059 31.2806 19.9059H40.5695L37.3721 23.4513Z" fill="white"/>
<path d="M26.6051 35.3828H31.9904C35.0603 35.3828 37.5892 33.064 37.92 30.0803C38.392 30.9347 38.6608 31.9167 38.6608 32.9641C38.6608 36.258 35.9905 38.9282 32.6967 38.9282H23.4043L26.6051 35.3828Z" fill="white"/>
<path fill-rule="evenodd" clip-rule="evenodd" d="M31.987 24.6262C34.6338 24.6263 36.7792 26.7718 36.7793 29.4186C36.7793 32.0654 34.6339 34.2112 31.987 34.2113C29.3401 34.2113 27.1943 32.0655 27.1943 29.4186C27.1944 26.7718 29.3402 24.6262 31.987 24.6262ZM32.2947 26.7618C32.2155 26.6033 31.9885 26.6033 31.9092 26.7618L31.3531 27.8752C31.1852 28.2095 30.9153 28.4807 30.581 28.6473L29.4676 29.2034C29.3092 29.2827 29.3091 29.5096 29.4676 29.5889L30.581 30.1446C30.9154 30.3125 31.1866 30.5827 31.3531 30.9171L31.9092 32.0305C31.9885 32.1888 32.2154 32.1888 32.2947 32.0305L32.8504 30.9171C33.0183 30.5827 33.2885 30.3111 33.6229 30.1446L34.7363 29.5889C34.8946 29.5096 34.8946 29.2827 34.7363 29.2034L33.6229 28.6473C33.2885 28.4794 33.017 28.2096 32.8504 27.8752L32.2947 26.7618Z" fill="white"/>
</g>
<defs>
<filter id="filter0_d_20_4178" x="0" y="0" width="63.9736" height="63.9736" filterUnits="userSpaceOnUse" color-interpolation-filters="sRGB">
<feFlood flood-opacity="0" result="BackgroundImageFix"/>
<feColorMatrix in="SourceAlpha" type="matrix" values="0 0 0 0 0 0 0 0 0 0 0 0 0 0 0 0 0 0 127 0" result="hardAlpha"/>
<feOffset dy="2"/>
<feGaussianBlur stdDeviation="6"/>
<feColorMatrix type="matrix" values="0 0 0 0 0 0 0 0 0 0.133333 0 0 0 0 0.356863 0 0 0 0.18 0"/>
<feBlend mode="normal" in2="BackgroundImageFix" result="effect1_dropShadow_20_4178"/>
<feBlend mode="normal" in="SourceGraphic" in2="effect1_dropShadow_20_4178" result="shape"/>
</filter>
</defs>
</svg>
